<svg width="24" height="24" viewBox="0 0 24 24" fill="none" xmlns="http://www.w3.org/2000/svg">
<g clip-path="url(#clip0_72_712)">
<path d="M-0.833333 21.3333V18.1542C-0.833333 17.4931 -0.668056 16.8903 -0.3375 16.3458C0.0125002 15.7819 0.469445 15.3542 1.03333 15.0625C2.27778 14.4597 3.5125 14.0125 4.7375 13.7208C5.9625 13.4097 7.21667 13.2542 8.5 13.2542C9.76389 13.2542 11.0083 13.4097 12.2333 13.7208C13.4583 14.0125 14.6931 14.4597 15.9375 15.0625C16.5014 15.3542 16.9583 15.7819 17.3083 16.3458C17.6583 16.8903 17.8333 17.4931 17.8333 18.1542V21.3333H-0.833333ZM20.05 21.3333V17.95C20.05 17.0361 19.7972 16.1903 19.2917 15.4125C18.8056 14.6153 18.1153 13.9444 17.2208 13.4C18.2708 13.5167 19.2528 13.7208 20.1667 14.0125C21.1 14.3042 21.9458 14.6444 22.7042 15.0333C23.3847 15.4222 23.9097 15.8597 24.2792 16.3458C24.6486 16.8319 24.8333 17.3667 24.8333 17.95V21.3333H20.05ZM8.5 12C7.21667 12 6.11806 11.5528 5.20417 10.6583C4.30972 9.76389 3.8625 8.675 3.8625 7.39167C3.8625 6.10833 4.30972 5.01944 5.20417 4.125C6.11806 3.21111 7.21667 2.75417 8.5 2.75417C9.78333 2.75417 10.8722 3.21111 11.7667 4.125C12.6611 5.01944 13.1083 6.10833 13.1083 7.39167C13.1083 8.675 12.6611 9.76389 11.7667 10.6583C10.8722 11.5528 9.78333 12 8.5 12ZM19.9625 7.39167C19.9625 8.675 19.5153 9.76389 18.6208 10.6583C17.7264 11.5528 16.6375 12 15.3542 12C15.1403 12 14.8681 11.9806 14.5375 11.9417C14.2264 11.8833 13.9639 11.825 13.75 11.7667C14.2556 11.1639 14.6444 10.4931 14.9167 9.75417C15.2083 8.99583 15.3542 8.20833 15.3542 7.39167C15.3542 6.55555 15.2083 5.76805 14.9167 5.02917C14.6444 4.29028 14.2556 3.60972 13.75 2.9875C14.0028 2.89028 14.2653 2.83194 14.5375 2.8125C14.8097 2.77361 15.0819 2.75417 15.3542 2.75417C16.6375 2.75417 17.7264 3.21111 18.6208 4.125C19.5153 5.01944 19.9625 6.10833 19.9625 7.39167ZM1.38333 19.0875H15.5875V18.1542C15.5875 17.9208 15.5292 17.7069 15.4125 17.5125C15.2958 17.3181 15.1403 17.1722 14.9458 17.075C13.8375 16.5306 12.7583 16.1319 11.7083 15.8792C10.6583 15.6264 9.58889 15.5 8.5 15.5C7.39167 15.5 6.3125 15.6264 5.2625 15.8792C4.2125 16.1319 3.13333 16.5306 2.025 17.075C1.83056 17.1722 1.675 17.3181 1.55833 17.5125C1.44167 17.7069 1.38333 17.9208 1.38333 18.1542V19.0875ZM8.5 9.75417C9.16111 9.75417 9.71528 9.53055 10.1625 9.08333C10.6292 8.61667 10.8625 8.05278 10.8625 7.39167C10.8625 6.73055 10.6292 6.16667 10.1625 5.7C9.71528 5.23333 9.16111 5 8.5 5C7.83889 5 7.275 5.23333 6.80833 5.7C6.34167 6.16667 6.10833 6.73055 6.10833 7.39167C6.10833 8.05278 6.34167 8.61667 6.80833 9.08333C7.275 9.53055 7.83889 9.75417 8.5 9.75417Z" fill="white"/>
</g>
<defs>
<clipPath id="clip0_72_712">
<rect width="24" height="24" fill="white"/>
</clipPath>
</defs>
</svg>
