<svg width="24" height="24" viewBox="0 0 24 24" fill="none" xmlns="http://www.w3.org/2000/svg">
<g clip-path="url(#clip0_72_775)">
<path d="M12 10H17V8H12V10ZM12 16H17V14H12V16ZM9 11C9.55 11 10.0167 10.8083 10.4 10.425C10.8 10.025 11 9.55 11 9C11 8.45 10.8 7.98333 10.4 7.6C10.0167 7.2 9.55 7 9 7C8.45 7 7.975 7.2 7.575 7.6C7.19167 7.98333 7 8.45 7 9C7 9.55 7.19167 10.025 7.575 10.425C7.975 10.8083 8.45 11 9 11ZM9 17C9.55 17 10.0167 16.8083 10.4 16.425C10.8 16.025 11 15.55 11 15C11 14.45 10.8 13.9833 10.4 13.6C10.0167 13.2 9.55 13 9 13C8.45 13 7.975 13.2 7.575 13.6C7.19167 13.9833 7 14.45 7 15C7 15.55 7.19167 16.025 7.575 16.425C7.975 16.8083 8.45 17 9 17ZM5 21C4.45 21 3.975 20.8083 3.575 20.425C3.19167 20.025 3 19.55 3 19V5C3 4.45 3.19167 3.98333 3.575 3.6C3.975 3.2 4.45 3 5 3H19C19.55 3 20.0167 3.2 20.4 3.6C20.8 3.98333 21 4.45 21 5V19C21 19.55 20.8 20.025 20.4 20.425C20.0167 20.8083 19.55 21 19 21H5ZM5 19H19V5H5V19ZM5 5V19V5Z" fill="#444746"/>
</g>
<defs>
<clipPath id="clip0_72_775">
<rect width="24" height="24" fill="white"/>
</clipPath>
</defs>
</svg>
