<svg width="24" height="24" viewBox="0 0 24 24" fill="none" xmlns="http://www.w3.org/2000/svg">
<g clip-path="url(#clip0_72_695)">
<path d="M7.24583 17.8042C7.55694 17.8042 7.81944 17.6972 8.03333 17.4833C8.24722 17.2694 8.35417 17.0069 8.35417 16.6958C8.35417 16.3847 8.24722 16.1222 8.03333 15.9083C7.81944 15.675 7.55694 15.5583 7.24583 15.5583C6.91528 15.5583 6.64306 15.675 6.42917 15.9083C6.21528 16.1222 6.10833 16.3847 6.10833 16.6958C6.10833 17.0069 6.21528 17.2694 6.42917 17.4833C6.64306 17.6972 6.91528 17.8042 7.24583 17.8042ZM7.24583 13.1083C7.55694 13.1083 7.81944 13.0014 8.03333 12.7875C8.24722 12.5736 8.35417 12.3111 8.35417 12C8.35417 11.6889 8.24722 11.4264 8.03333 11.2125C7.81944 10.9986 7.55694 10.8917 7.24583 10.8917C6.91528 10.8917 6.64306 10.9986 6.42917 11.2125C6.21528 11.4264 6.10833 11.6889 6.10833 12C6.10833 12.3111 6.21528 12.5736 6.42917 12.7875C6.64306 13.0014 6.91528 13.1083 7.24583 13.1083ZM7.24583 8.44167C7.55694 8.44167 7.81944 8.33472 8.03333 8.12083C8.24722 7.8875 8.35417 7.61528 8.35417 7.30416C8.35417 6.99305 8.24722 6.73055 8.03333 6.51667C7.81944 6.30278 7.55694 6.19583 7.24583 6.19583C6.91528 6.19583 6.64306 6.30278 6.42917 6.51667C6.21528 6.73055 6.10833 6.99305 6.10833 7.30416C6.10833 7.61528 6.21528 7.8875 6.42917 8.12083C6.64306 8.33472 6.91528 8.44167 7.24583 8.44167ZM10.8042 17.8042H17.8042V15.5583H10.8042V17.8042ZM10.8042 13.1083H17.8042V10.8917H10.8042V13.1083ZM10.8042 8.44167H17.8042V6.19583H10.8042V8.44167ZM3.74583 22.5C3.12361 22.5 2.58889 22.2861 2.14167 21.8583C1.71389 21.4111 1.5 20.8764 1.5 20.2542V3.74583C1.5 3.12361 1.71389 2.59861 2.14167 2.17083C2.58889 1.72361 3.12361 1.5 3.74583 1.5H20.2542C20.8764 1.5 21.4014 1.72361 21.8292 2.17083C22.2764 2.59861 22.5 3.12361 22.5 3.74583V20.2542C22.5 20.8764 22.2764 21.4111 21.8292 21.8583C21.4014 22.2861 20.8764 22.5 20.2542 22.5H3.74583ZM3.74583 20.2542H20.2542V3.74583H3.74583V20.2542ZM3.74583 3.74583V20.2542V3.74583Z" fill="white"/>
</g>
<defs>
<clipPath id="clip0_72_695">
<rect width="24" height="24" fill="white"/>
</clipPath>
</defs>
</svg>
