<svg width="20" height="20" viewBox="0 0 20 20" fill="none" xmlns="http://www.w3.org/2000/svg">
<g clip-path="url(#clip0_145_432)">
<path d="M13.15 17.2C12.525 17.2 11.9938 16.9812 11.5563 16.5437C11.1188 16.1062 10.9 15.575 10.9 14.95C10.9 14.8375 10.925 14.6562 10.975 14.4062L6.53125 11.6875C6.33125 11.8625 6.10625 12 5.85625 12.1C5.60625 12.2 5.3375 12.25 5.05 12.25C4.425 12.25 3.89375 12.0312 3.45625 11.5937C3.01875 11.1562 2.8 10.625 2.8 10C2.8 9.375 3.01875 8.84375 3.45625 8.40625C3.89375 7.96875 4.425 7.75 5.05 7.75C5.3375 7.75 5.60625 7.8 5.85625 7.9C6.10625 8 6.33125 8.1375 6.53125 8.3125L10.975 5.59375C10.95 5.50625 10.9313 5.41875 10.9188 5.33125C10.9063 5.24375 10.9 5.15 10.9 5.05C10.9 4.425 11.1188 3.89375 11.5563 3.45625C11.9938 3.01875 12.525 2.8 13.15 2.8C13.775 2.8 14.3063 3.01875 14.7438 3.45625C15.1813 3.89375 15.4 4.425 15.4 5.05C15.4 5.675 15.1813 6.20625 14.7438 6.64375C14.3063 7.08125 13.775 7.3 13.15 7.3C12.8625 7.3 12.5938 7.25 12.3438 7.15C12.0938 7.05 11.8688 6.9125 11.6688 6.7375L7.225 9.45625C7.25 9.54375 7.26875 9.63125 7.28125 9.71875C7.29375 9.80625 7.3 9.9 7.3 10C7.3 10.1 7.29375 10.1937 7.28125 10.2812C7.26875 10.3687 7.25 10.4562 7.225 10.5437L11.6688 13.2625C11.8688 13.0875 12.0938 12.95 12.3438 12.85C12.5938 12.75 12.8625 12.7 13.15 12.7C13.775 12.7 14.3063 12.9187 14.7438 13.3562C15.1813 13.7937 15.4 14.325 15.4 14.95C15.4 15.575 15.1813 16.1062 14.7438 16.5437C14.3063 16.9812 13.775 17.2 13.15 17.2ZM13.15 15.85C13.4 15.85 13.6125 15.7625 13.7875 15.5875C13.9625 15.4125 14.05 15.2 14.05 14.95C14.05 14.7 13.9625 14.4875 13.7875 14.3125C13.6125 14.1375 13.4 14.05 13.15 14.05C12.9 14.05 12.6875 14.1375 12.5125 14.3125C12.3375 14.4875 12.25 14.7 12.25 14.95C12.25 15.2 12.3375 15.4125 12.5125 15.5875C12.6875 15.7625 12.9 15.85 13.15 15.85ZM5.05 10.9C5.3 10.9 5.5125 10.8125 5.6875 10.6375C5.8625 10.4625 5.95 10.25 5.95 10C5.95 9.75 5.8625 9.5375 5.6875 9.3625C5.5125 9.1875 5.3 9.1 5.05 9.1C4.8 9.1 4.5875 9.1875 4.4125 9.3625C4.2375 9.5375 4.15 9.75 4.15 10C4.15 10.25 4.2375 10.4625 4.4125 10.6375C4.5875 10.8125 4.8 10.9 5.05 10.9ZM13.15 5.95C13.4 5.95 13.6125 5.8625 13.7875 5.6875C13.9625 5.5125 14.05 5.3 14.05 5.05C14.05 4.8 13.9625 4.5875 13.7875 4.4125C13.6125 4.2375 13.4 4.15 13.15 4.15C12.9 4.15 12.6875 4.2375 12.5125 4.4125C12.3375 4.5875 12.25 4.8 12.25 5.05C12.25 5.3 12.3375 5.5125 12.5125 5.6875C12.6875 5.8625 12.9 5.95 13.15 5.95Z" fill="#444746"/>
</g>
<defs>
<clipPath id="clip0_145_432">
<rect width="20" height="20" fill="white"/>
</clipPath>
</defs>
</svg>
