<svg width="24" height="24" viewBox="0 0 24 24" fill="none" xmlns="http://www.w3.org/2000/svg">
<g clip-path="url(#clip0_72_771)">
<path d="M12.225 12.5L14.5 11.125L16.775 12.5L16.175 9.9L18.175 8.175L15.55 7.95L14.5 5.5L13.45 7.95L10.825 8.175L12.825 9.9L12.225 12.5ZM12.7 19H18.3C18.1833 19.4333 17.9833 19.7833 17.7 20.05C17.4167 20.3167 17.05 20.4833 16.6 20.55L5.7 21.875C5.15 21.9583 4.65 21.8333 4.2 21.5C3.76667 21.15 3.51667 20.7 3.45 20.15L2.125 9.225C2.05833 8.675 2.19167 8.18333 2.525 7.75C2.85833 7.31667 3.3 7.06667 3.85 7L5 6.85V8.85L4.1 8.975L5.45 19.9L12.7 19ZM9 17C8.45 17 7.975 16.8083 7.575 16.425C7.19167 16.025 7 15.55 7 15V4C7 3.45 7.19167 2.98333 7.575 2.6C7.975 2.2 8.45 2 9 2H20C20.55 2 21.0167 2.2 21.4 2.6C21.8 2.98333 22 3.45 22 4V15C22 15.55 21.8 16.025 21.4 16.425C21.0167 16.8083 20.55 17 20 17H9ZM9 15H20V4H9V15Z" fill="#444746"/>
</g>
<defs>
<clipPath id="clip0_72_771">
<rect width="24" height="24" fill="white"/>
</clipPath>
</defs>
</svg>
