<svg width="30" height="28" viewBox="0 0 30 28" fill="none" xmlns="http://www.w3.org/2000/svg">
<g clip-path="url(#clip0_72_701)">
<path d="M3.24583 16.3333C2.62361 16.3333 2.08889 16.1194 1.64167 15.6917C1.21389 15.2444 1 14.7097 1 14.0875V6.94167C1 6.72778 1.03889 6.52361 1.11667 6.32917C1.21389 6.11528 1.34028 5.92083 1.49583 5.74583L7.27083 0L8.11667 0.874998C8.23333 0.97222 8.32083 1.10833 8.37917 1.28333C8.45694 1.45833 8.49583 1.63333 8.49583 1.80833V2.04167L7.67917 5.83333H13.775C14.125 5.83333 14.4167 5.95 14.65 6.18333C14.8833 6.41667 15 6.70833 15 7.05833V8.45833C15 8.575 14.9903 8.69167 14.9708 8.80833C14.9514 8.90555 14.9222 8.99305 14.8833 9.07083L12.2583 15.3125C12.1222 15.6236 11.9083 15.8764 11.6167 16.0708C11.325 16.2458 10.9944 16.3333 10.625 16.3333H3.24583ZM10.3333 14.0875L12.7542 8.37083V8.07917H4.9375L5.66667 4.78333L3.24583 7.175V14.0875H10.3333ZM22.7292 28L21.8833 27.125C21.7667 27.0278 21.6694 26.8917 21.5917 26.7167C21.5333 26.5417 21.5042 26.3667 21.5042 26.1917V25.9583L22.3208 22.1667H16.225C15.875 22.1667 15.5833 22.05 15.35 21.8167C15.1167 21.5833 15 21.2917 15 20.9417V19.5417C15 19.425 15.0097 19.3181 15.0292 19.2208C15.0486 19.1042 15.0778 19.0069 15.1167 18.9292L17.7417 12.6875C17.8972 12.3569 18.1111 12.1042 18.3833 11.9292C18.675 11.7542 19.0056 11.6667 19.375 11.6667H26.7542C27.3764 11.6667 27.9014 11.8903 28.3292 12.3375C28.7764 12.7653 29 13.2903 29 13.9125V21.0583C29 21.2722 28.9611 21.4861 28.8833 21.7C28.8056 21.8944 28.6792 22.0792 28.5042 22.2542L22.7292 28ZM19.6667 13.9125L17.2458 19.6292V19.9208H25.0625L24.3333 23.2167L26.7542 20.825V13.9125H19.6667ZM3.24583 14.0292V7.175V8.07917V8.3125V14.0292ZM26.7542 13.9708V20.825V19.9208V19.6875V13.9708Z" fill="white"/>
</g>
<defs>
<clipPath id="clip0_72_701">
<rect width="30" height="28" fill="white"/>
</clipPath>
</defs>
</svg>
