<svg width="30" height="28" viewBox="0 0 30 28" fill="none" xmlns="http://www.w3.org/2000/svg">
<g clip-path="url(#clip0_72_706)">
<path d="M6.74583 25.6667C6.12361 25.6667 5.58889 25.4528 5.14167 25.025C4.71389 24.5778 4.5 24.0431 4.5 23.4208V18.0542L7.825 14.2917L9.42917 15.8667L6.89167 18.6958H23.1083L20.6583 15.925L22.2625 14.35L25.5 18.0542V23.4208C25.5 24.0431 25.2764 24.5778 24.8292 25.025C24.4014 25.4528 23.8764 25.6667 23.2542 25.6667H6.74583ZM6.74583 23.4208H23.2542V20.9125H6.74583V23.4208ZM13.4833 16.7708L9.28333 12.5708C8.85556 12.1431 8.64167 11.6181 8.64167 10.9958C8.66111 10.3736 8.88472 9.84861 9.3125 9.42083L15.1167 3.61666C15.5444 3.18889 16.0694 2.96528 16.6917 2.94583C17.3333 2.92639 17.8681 3.13055 18.2958 3.55833L22.4958 7.7875C22.9236 8.21528 23.1472 8.73055 23.1667 9.33333C23.1861 9.93611 22.9722 10.4611 22.525 10.9083L16.6333 16.8C16.2056 17.2278 15.6806 17.4417 15.0583 17.4417C14.4361 17.4222 13.9111 17.1986 13.4833 16.7708ZM20.8917 9.33333L16.7208 5.19167L10.9167 11.025L15.0583 15.1667L20.8917 9.33333ZM6.74583 23.4208V20.9125V23.4208Z" fill="white"/>
</g>
<defs>
<clipPath id="clip0_72_706">
<rect width="30" height="28" fill="white"/>
</clipPath>
</defs>
</svg>
