<svg width="392" height="32" viewBox="0 0 392 32" fill="none" xmlns="http://www.w3.org/2000/svg"><g clip-path="url(#clip0_35_77558)"><path d="M69.9134 3.96966H84.5085V8.19158H79.7705V23.6799H84.5085V27.9018H69.9134V23.6799H74.5229V8.19158H69.7849V3.96966H69.9134ZM98.4702 18.6869H104.361L104.232 19.0724C103.718 22.528 101.413 24.4462 98.3417 24.4462C94.6274 24.4462 92.0655 21.5047 92.0655 16.3832V15.8691C92.0655 10.7476 94.756 7.67752 98.4702 7.67752C101.289 7.67752 103.337 9.21493 103.718 11.7709H108.965C108.327 6.64941 104.227 3.45084 98.4655 3.45084C91.4227 3.45084 86.6847 8.44385 86.6847 15.9929V16.2499C86.6847 23.9274 90.9084 28.5349 97.1845 28.5349C100.256 28.5349 102.818 27.2545 104.356 24.9508V28.0208H109.222V14.4555H98.4655V18.6774L98.4702 18.6869ZM52.7565 8.19158H60.8231V19.201C60.8231 22.6566 59.285 24.3225 56.9803 24.3225C54.6755 24.3225 53.1374 22.6566 53.1374 19.3295H48.0137C48.1423 25.0888 51.4708 28.4159 57.1041 28.4159C62.7373 28.4159 66.1944 25.0888 66.1944 18.9439V3.96966H54.9279L52.7517 8.19158H52.7565ZM189.893 3.96966L183.617 22.6566L179.136 3.96966H172.607L168.127 22.6566L161.85 3.96966H156.346L164.798 28.0303H171.712L175.807 11.1331L179.903 28.1541H186.945L195.398 4.09341H189.893V3.9649V3.96966ZM126.765 13.9509L121.641 12.9276C119.465 12.4135 118.699 11.6472 118.699 10.3668C118.699 8.82939 120.237 7.54901 123.051 7.54901C126.122 7.54901 127.918 8.95791 128.175 11.2616H133.17C132.913 6.39714 129.075 3.4556 123.056 3.4556C117.037 3.4556 113.451 6.39714 113.451 11.0094C113.451 14.722 115.499 16.7687 120.108 17.6635L125.103 18.6869C127.279 19.201 128.046 19.9673 128.046 21.3762C128.046 23.2944 126.256 24.4462 123.308 24.4462C119.722 24.4462 118.06 23.0373 117.803 20.4766H112.808C113.065 25.5981 116.522 28.6682 123.308 28.6682C129.584 28.6682 133.294 25.7266 133.294 20.8621C133.422 17.021 131.375 14.9743 126.765 13.9509ZM150.455 3.96966L158.908 28.0303H153.403L151.612 22.6566H142.008L140.217 28.0303H134.97L143.422 3.96966H150.465H150.455ZM150.07 18.4299L146.741 8.57236L143.413 18.4299H150.07ZM13.0617 5.63082C13.957 5.37379 14.9808 5.24528 15.8808 5.24528C21.7712 5.24528 26.5092 9.98126 26.5092 15.8691C26.5092 21.757 21.8997 26.6214 16.0093 26.6214C11.5284 26.6214 7.55705 23.8037 6.02374 19.8388L0 32H32.0139V0H16.0093L13.0665 5.63082H13.0617Z" fill="#1e2656"></path><path d="M214.516 27.8114C213.402 27.3164 212.412 26.5881 211.55 25.6267C210.688 24.6652 210.069 23.5038 209.693 22.133L212.378 21.0382C212.755 22.4519 213.45 23.6085 214.464 24.5129C215.478 25.4172 216.674 25.8694 218.04 25.8694C219.407 25.8694 220.569 25.4981 221.516 24.7604C222.464 24.0226 222.94 23.0088 222.94 21.7284C222.94 20.6241 222.535 19.715 221.731 18.9963C220.926 18.2776 219.607 17.6112 217.774 16.9924L216.283 16.4641C214.602 15.8691 213.235 15.0837 212.174 14.1127C211.112 13.1418 210.583 11.7947 210.583 10.0717C210.583 8.94363 210.893 7.90124 211.512 6.94452C212.131 5.98304 212.993 5.21672 214.097 4.64079C215.202 4.06485 216.44 3.77927 217.807 3.77927C219.174 3.77927 220.369 4.03153 221.383 4.54083C222.397 5.05013 223.212 5.6689 223.816 6.39714C224.426 7.12539 224.85 7.84412 225.092 8.54856L222.473 9.67663C222.231 8.85795 221.716 8.12019 220.931 7.45858C220.145 6.79697 219.112 6.46378 217.835 6.46378C216.621 6.46378 215.583 6.80649 214.721 7.49189C213.859 8.1773 213.431 9.03882 213.431 10.0765C213.431 11.0046 213.797 11.7614 214.526 12.3469C215.255 12.9323 216.359 13.4797 217.84 13.9842L219.397 14.5126C221.407 15.2408 222.973 16.1499 224.102 17.2447C225.231 18.3394 225.792 19.8245 225.792 21.6998C225.792 23.223 225.402 24.5033 224.616 25.541C223.831 26.5786 222.845 27.3402 221.65 27.8257C220.459 28.3112 219.231 28.5539 217.974 28.5539C216.783 28.5539 215.626 28.3064 214.512 27.8066L214.516 27.8114Z" fill="#1e2656"></path><path d="M232.588 27.3973C231.307 26.6262 230.307 25.56 229.588 24.2035C228.869 22.8469 228.512 21.3191 228.512 19.6151C228.512 18.0015 228.85 16.5069 229.521 15.1266C230.192 13.7462 231.154 12.6467 232.402 11.8328C233.65 11.0141 235.078 10.6096 236.692 10.6096C238.307 10.6096 239.783 10.9808 240.997 11.7186C242.211 12.4563 243.145 13.4797 243.797 14.7839C244.449 16.0881 244.773 17.5779 244.773 19.2533C244.773 19.5199 244.749 19.8054 244.707 20.1148H231.321C231.388 21.3952 231.697 22.4757 232.25 23.361C232.802 24.2463 233.502 24.9079 234.354 25.3458C235.202 25.7885 236.092 26.0074 237.021 26.0074C239.23 26.0074 240.897 24.9936 242.026 22.9612L244.411 24.1178C243.702 25.4648 242.721 26.5405 241.464 27.3449C240.207 28.1493 238.692 28.5539 236.926 28.5539C235.311 28.5539 233.869 28.1684 232.588 27.3973ZM241.797 17.7968C241.754 17.0924 241.554 16.3832 241.202 15.6787C240.849 14.9743 240.297 14.3745 239.545 13.889C238.792 13.4035 237.845 13.1608 236.697 13.1608C235.373 13.1608 234.245 13.5844 233.316 14.4364C232.388 15.2884 231.783 16.407 231.492 17.7968H241.797Z" fill="#1e2656"></path><path d="M248.059 11.1379H250.745V13.6225H250.878C251.34 12.7848 252.083 12.0708 253.097 11.4853C254.111 10.8999 255.197 10.6096 256.344 10.6096C258.378 10.6096 259.925 11.1998 260.997 12.3802C262.068 13.5606 262.602 15.1694 262.602 17.1971V28.0256H259.787V17.6255C259.787 16.0595 259.411 14.9219 258.659 14.2127C257.906 13.5083 256.883 13.1513 255.578 13.1513C254.673 13.1513 253.859 13.4035 253.145 13.9128C252.425 14.4221 251.868 15.0885 251.473 15.9167C251.078 16.7449 250.878 17.6112 250.878 18.5155V28.0208H248.064V11.1379H248.059Z" fill="#1e2656"></path><path d="M267.835 27.2831C266.621 26.4311 265.759 25.3458 265.249 24.0226L267.768 22.8945C268.187 23.9084 268.811 24.6937 269.64 25.2459C270.468 25.798 271.378 26.0741 272.373 26.0741C273.435 26.0741 274.34 25.8599 275.087 25.4267C275.84 24.9984 276.216 24.3844 276.216 23.5895C276.216 22.885 275.916 22.3138 275.32 21.8855C274.725 21.4571 273.787 21.0858 272.506 20.7764L270.454 20.2481C269.106 19.9149 268.002 19.3533 267.14 18.5584C266.278 17.7635 265.849 16.7354 265.849 15.4788C265.849 14.5078 266.14 13.651 266.725 12.9133C267.311 12.1755 268.087 11.6043 269.059 11.2093C270.03 10.8142 271.078 10.6143 272.206 10.6143C273.687 10.6143 275.006 10.9332 276.163 11.5758C277.32 12.2184 278.144 13.1084 278.63 14.2603L276.178 15.3884C275.425 13.889 274.092 13.137 272.168 13.137C271.24 13.137 270.43 13.3512 269.735 13.7843C269.04 14.2127 268.692 14.7601 268.692 15.4217C268.692 16.0405 268.935 16.5402 269.421 16.9305C269.906 17.3161 270.635 17.6302 271.606 17.873L274.059 18.5013C275.716 18.9201 276.963 19.5437 277.801 20.3719C278.639 21.2001 279.059 22.2091 279.059 23.4038C279.059 24.4415 278.759 25.3506 278.163 26.1359C277.568 26.9213 276.759 27.521 275.744 27.9399C274.73 28.3588 273.601 28.5682 272.363 28.5682C270.554 28.5682 269.04 28.1446 267.825 27.2926L267.835 27.2831Z" fill="#1e2656"></path><path d="M285.492 27.3973C284.211 26.6262 283.211 25.56 282.492 24.2035C281.773 22.8469 281.416 21.3191 281.416 19.6151C281.416 18.0015 281.754 16.5069 282.425 15.1266C283.097 13.7462 284.058 12.6467 285.306 11.8328C286.554 11.0141 287.982 10.6096 289.596 10.6096C291.211 10.6096 292.687 10.9808 293.901 11.7186C295.115 12.4563 296.049 13.4797 296.701 14.7839C297.354 16.0881 297.677 17.5779 297.677 19.2533C297.677 19.5199 297.654 19.8054 297.611 20.1148H284.225C284.292 21.3952 284.601 22.4757 285.154 23.361C285.706 24.2463 286.406 24.9079 287.258 25.3458C288.106 25.7885 288.996 26.0074 289.925 26.0074C292.135 26.0074 293.801 24.9936 294.93 22.9612L297.315 24.1178C296.606 25.4648 295.625 26.5405 294.368 27.3449C293.111 28.1493 291.596 28.5539 289.83 28.5539C288.216 28.5539 286.773 28.1684 285.492 27.3973ZM294.706 17.7968C294.663 17.0924 294.463 16.3832 294.111 15.6787C293.758 14.9743 293.206 14.3745 292.454 13.889C291.701 13.4035 290.754 13.1608 289.606 13.1608C288.282 13.1608 287.154 13.5844 286.225 14.4364C285.297 15.2884 284.692 16.407 284.401 17.7968H294.706Z" fill="#1e2656"></path><path d="M300.963 11.1379H303.649V13.6225H303.782C304.268 12.761 304.996 12.0422 305.968 11.4711C306.939 10.8951 307.968 10.6096 309.049 10.6096C310.287 10.6096 311.363 10.9094 312.277 11.5044C313.191 12.0994 313.849 12.8942 314.249 13.889C314.844 12.8942 315.634 12.0994 316.615 11.5044C317.596 10.9094 318.739 10.6096 320.044 10.6096C321.987 10.6096 323.448 11.1998 324.434 12.3802C325.415 13.5606 325.91 15.1694 325.91 17.1971V28.0256H323.129V17.6255C323.129 16.0595 322.81 14.9219 322.168 14.2127C321.525 13.5083 320.577 13.1513 319.32 13.1513C318.482 13.1513 317.72 13.394 317.034 13.8795C316.349 14.365 315.815 15.0171 315.429 15.831C315.044 16.6497 314.849 17.5303 314.849 18.4822V28.0208H312.034V17.654C312.034 16.0643 311.715 14.9172 311.072 14.2079C310.43 13.5035 309.491 13.1465 308.258 13.1465C307.42 13.1465 306.658 13.394 305.972 13.8938C305.287 14.3888 304.753 15.0504 304.368 15.8786C303.982 16.7068 303.787 17.5969 303.787 18.5441V28.0161H300.973V11.1379H300.963Z" fill="#1e2656"></path><path d="M331.905 27.8304C330.934 27.3449 330.182 26.6786 329.653 25.8266C329.125 24.9793 328.858 24.0131 328.858 22.9279C328.858 21.1382 329.529 19.7436 330.877 18.7393C332.225 17.7349 333.924 17.2304 335.977 17.2304C336.991 17.2304 337.939 17.3399 338.81 17.5636C339.682 17.7825 340.353 18.0396 340.815 18.3252V17.297C340.815 16.0405 340.372 15.0266 339.491 14.2651C338.605 13.5035 337.491 13.1227 336.143 13.1227C335.215 13.1227 334.348 13.3274 333.544 13.7367C332.739 14.1461 332.101 14.7125 331.639 15.4407L329.52 13.851C330.182 12.8371 331.101 12.0422 332.267 11.4663C333.439 10.8904 334.729 10.6048 336.143 10.6048C338.439 10.6048 340.239 11.2045 341.543 12.4087C342.848 13.613 343.496 15.2503 343.496 17.3256V28.0208H340.81V25.6029H340.677C340.191 26.4215 339.463 27.1165 338.491 27.6876C337.52 28.2636 336.424 28.5492 335.21 28.5492C333.996 28.5492 332.867 28.3064 331.896 27.8209L331.905 27.8304ZM338.134 25.3458C338.953 24.8603 339.601 24.2082 340.086 23.3943C340.572 22.5756 340.815 21.6856 340.815 20.7098C340.286 20.3576 339.634 20.072 338.863 19.8483C338.091 19.6293 337.272 19.5151 336.41 19.5151C334.863 19.5151 333.701 19.834 332.915 20.4766C332.129 21.1191 331.739 21.9473 331.739 22.9612C331.739 23.8893 332.091 24.6414 332.801 25.2126C333.505 25.7885 334.401 26.0741 335.486 26.0741C336.434 26.0741 337.32 25.8313 338.139 25.3458H338.134Z" fill="#1e2656"></path><path d="M347.41 4.31712H350.224V19.22L358.177 11.1379H361.753V11.2712L355.129 17.9586L361.953 27.8923V28.0256H358.572L353.139 19.9149L350.224 22.8279V28.0256H347.41V4.31712Z" fill="#1e2656"></path><path d="M366.824 27.3973C365.543 26.6262 364.543 25.56 363.824 24.2035C363.105 22.8469 362.748 21.3191 362.748 19.6151C362.748 18.0015 363.086 16.5069 363.757 15.1266C364.429 13.7462 365.391 12.6467 366.638 11.8328C367.886 11.0141 369.315 10.6096 370.929 10.6096C372.543 10.6096 374.019 10.9808 375.234 11.7186C376.448 12.4563 377.381 13.4797 378.034 14.7839C378.686 16.0881 379.01 17.5779 379.01 19.2533C379.01 19.5199 378.986 19.8054 378.943 20.1148H365.557C365.624 21.3952 365.934 22.4757 366.486 23.361C367.038 24.2463 367.738 24.9079 368.591 25.3458C369.438 25.7885 370.329 26.0074 371.257 26.0074C373.467 26.0074 375.134 24.9936 376.262 22.9612L378.648 24.1178C377.938 25.4648 376.957 26.5405 375.7 27.3449C374.443 28.1493 372.929 28.5539 371.162 28.5539C369.548 28.5539 368.105 28.1684 366.824 27.3973ZM376.034 17.7968C375.991 17.0924 375.791 16.3832 375.438 15.6787C375.086 14.9743 374.534 14.3745 373.781 13.889C373.029 13.4035 372.081 13.1608 370.934 13.1608C369.61 13.1608 368.481 13.5844 367.553 14.4364C366.624 15.2884 366.019 16.407 365.729 17.7968H376.034Z" fill="#1e2656"></path><path d="M382.295 11.1379H384.981V13.851H385.114C385.448 12.9228 386.086 12.1517 387.038 11.5329C387.986 10.9142 388.981 10.6048 390.019 10.6048C390.79 10.6048 391.452 10.7285 392.005 10.9713V13.9842C391.295 13.632 390.505 13.4559 389.619 13.4559C388.8 13.4559 388.052 13.6891 387.367 14.1508C386.681 14.6173 386.133 15.2408 385.729 16.0262C385.319 16.8115 385.114 17.6588 385.114 18.5631V28.0208H382.3V11.1379H382.295Z" fill="#1e2656"></path></g><defs><clipPath id="clip0_35_77558"><rect width="392" height="32" fill="#1e2656"></rect></clipPath></defs></svg>
