<?xml version="1.0" encoding="UTF-8"?>
<svg id="Layer_1" xmlns="http://www.w3.org/2000/svg" version="1.1" viewBox="0 0 318.13 56.88">
  <!-- Generator: Adobe Illustrator 30.2.1, SVG Export Plug-In . SVG Version: 2.1.1 Build 1)  -->
  <path d="M0,0h16.8c2.4,0,4.61.5,6.63,1.5,2.02,1,3.61,2.36,4.77,4.08,1.16,1.72,1.74,3.6,1.74,5.64,0,2.16-.53,4.03-1.59,5.61-1.06,1.58-2.45,2.79-4.17,3.63v.48c2.24.8,4.02,2.07,5.34,3.81,1.32,1.74,1.98,3.83,1.98,6.27s-.63,4.45-1.89,6.27c-1.26,1.82-2.96,3.22-5.1,4.2-2.14.98-4.51,1.47-7.11,1.47H0V0ZM16.2,17.52c1.76,0,3.17-.49,4.23-1.47,1.06-.98,1.59-2.21,1.59-3.69s-.51-2.65-1.53-3.63c-1.02-.98-2.37-1.47-4.05-1.47h-8.34v10.26h8.1ZM17.1,35.58c1.96,0,3.49-.51,4.59-1.53,1.1-1.02,1.65-2.35,1.65-3.99s-.56-2.98-1.68-4.02c-1.12-1.04-2.72-1.56-4.8-1.56h-8.76v11.1h9Z"/>
  <path d="M37.51,12.36h7.38v4.08h.48c.76-1.44,1.94-2.64,3.54-3.6,1.6-.96,3.36-1.44,5.28-1.44,1.4,0,2.68.24,3.84.72v7.8c-1.08-.4-1.99-.69-2.73-.87-.74-.18-1.53-.27-2.37-.27-2.32,0-4.16.84-5.52,2.53-1.36,1.68-2.04,3.81-2.04,6.38v15.28h-7.86V12.36Z"/>
  <path d="M63.71,41.07c-2.08-1.9-3.12-4.39-3.12-7.47,0-2.04.54-3.84,1.62-5.4,1.08-1.56,2.56-2.76,4.44-3.6,1.88-.84,3.96-1.26,6.24-1.26,3.16,0,5.86.46,8.1,1.38v-1.32c0-1.68-.63-3.04-1.89-4.08-1.26-1.04-2.95-1.56-5.07-1.56-1.44,0-2.83.33-4.17.99-1.34.66-2.45,1.53-3.33,2.61l-5.04-3.96c1.48-1.92,3.34-3.4,5.58-4.44,2.24-1.04,4.68-1.56,7.32-1.56,4.68,0,8.24,1.08,10.68,3.24,2.44,2.16,3.66,5.32,3.66,9.48v18.84h-7.74v-3.12h-.48c-.92,1.2-2.13,2.18-3.63,2.94-1.5.76-3.23,1.14-5.19,1.14-3.24,0-5.9-.95-7.98-2.85ZM78.98,35.61c1.34-1.46,2.01-3.17,2.01-5.13-2.04-.96-4.18-1.44-6.42-1.44-4.08,0-6.12,1.52-6.12,4.56,0,1.24.44,2.25,1.32,3.03.88.78,2.14,1.17,3.78,1.17,2.28,0,4.09-.73,5.43-2.19Z"/>
  <path d="M95.34,12.36h7.38v3.84h.48c.92-1.48,2.22-2.65,3.9-3.51,1.68-.86,3.5-1.29,5.46-1.29,3.68,0,6.48,1.12,8.4,3.36,1.92,2.24,2.88,5.3,2.88,9.18v19.02h-7.86v-18.06c0-1.96-.5-3.48-1.5-4.56-1-1.08-2.4-1.62-4.2-1.62-2.12,0-3.83.82-5.13,2.46-1.3,1.64-1.95,3.7-1.95,6.18v15.6h-7.86V12.36Z"/>
  <path d="M136.21,41.85c-2.26-1.38-4.04-3.3-5.34-5.76-1.3-2.46-1.95-5.27-1.95-8.43s.65-5.92,1.95-8.4c1.3-2.48,3.08-4.41,5.34-5.79,2.26-1.38,4.77-2.07,7.53-2.07,2.08,0,3.92.45,5.52,1.35,1.6.9,2.82,2.01,3.66,3.33h.48l-.48-4.32V0h7.8v42.96h-7.32v-3.66h-.48c-.8,1.32-2.01,2.42-3.63,3.3-1.62.88-3.47,1.32-5.55,1.32-2.76,0-5.27-.69-7.53-2.07ZM149.2,35.52c1.28-.76,2.3-1.82,3.06-3.18.76-1.36,1.14-2.92,1.14-4.68s-.38-3.32-1.14-4.68c-.76-1.36-1.78-2.41-3.06-3.15-1.28-.74-2.66-1.11-4.14-1.11s-2.8.37-4.08,1.11c-1.28.74-2.3,1.79-3.06,3.15-.76,1.36-1.14,2.92-1.14,4.68s.38,3.32,1.14,4.68c.76,1.36,1.78,2.42,3.06,3.18,1.28.76,2.64,1.14,4.08,1.14s2.86-.38,4.14-1.14Z"/>
  <path d="M183.58,0h8.1v35.28h18.18v7.68h-26.28V0Z"/>
  <path d="M220.64,41.79c-2.48-1.42-4.41-3.36-5.79-5.82-1.38-2.46-2.07-5.23-2.07-8.31s.69-5.8,2.07-8.28c1.38-2.48,3.31-4.43,5.79-5.85,2.48-1.42,5.3-2.13,8.46-2.13s5.92.71,8.4,2.13c2.48,1.42,4.41,3.37,5.79,5.85,1.38,2.48,2.07,5.24,2.07,8.28s-.69,5.85-2.07,8.31c-1.38,2.46-3.31,4.4-5.79,5.82-2.48,1.42-5.28,2.13-8.4,2.13s-5.98-.71-8.46-2.13ZM233.3,35.58c1.28-.72,2.3-1.76,3.06-3.12.76-1.36,1.14-2.96,1.14-4.8s-.38-3.38-1.14-4.74c-.76-1.36-1.78-2.4-3.06-3.12-1.28-.72-2.68-1.08-4.2-1.08s-2.92.36-4.2,1.08c-1.28.72-2.31,1.76-3.09,3.12-.78,1.36-1.17,2.94-1.17,4.74s.39,3.39,1.17,4.77c.78,1.38,1.81,2.43,3.09,3.15,1.28.72,2.68,1.08,4.2,1.08s2.92-.36,4.2-1.08Z"/>
  <path d="M254.97,54.27c-2.56-1.74-4.28-3.83-5.16-6.27l7.38-3c.64,1.52,1.62,2.72,2.94,3.6,1.32.88,2.82,1.32,4.5,1.32,2.48,0,4.45-.76,5.91-2.28,1.46-1.52,2.19-3.68,2.19-6.48v-2.4h-.48c-.96,1.36-2.22,2.4-3.78,3.12-1.56.72-3.34,1.08-5.34,1.08-2.52,0-4.87-.65-7.05-1.95-2.18-1.3-3.93-3.14-5.25-5.52-1.32-2.38-1.98-5.15-1.98-8.31s.66-5.93,1.98-8.31c1.32-2.38,3.07-4.22,5.25-5.52,2.18-1.3,4.53-1.95,7.05-1.95,2,0,3.78.36,5.34,1.08,1.56.72,2.82,1.76,3.78,3.12h.48v-3.24h7.56v28.5c0,3.28-.64,6.12-1.92,8.52-1.28,2.4-3.1,4.25-5.46,5.55-2.36,1.3-5.12,1.95-8.28,1.95-3.88,0-7.1-.87-9.66-2.61ZM270.39,33.51c1.56-1.54,2.34-3.65,2.34-6.33s-.77-4.89-2.31-6.39c-1.54-1.5-3.43-2.25-5.67-2.25s-4.14.76-5.7,2.28c-1.56,1.52-2.34,3.64-2.34,6.36s.78,4.84,2.34,6.36c1.56,1.52,3.46,2.28,5.7,2.28s4.08-.77,5.64-2.31Z"/>
  <path d="M293.41,41.79c-2.48-1.42-4.41-3.36-5.79-5.82-1.38-2.46-2.07-5.23-2.07-8.31s.69-5.8,2.07-8.28c1.38-2.48,3.31-4.43,5.79-5.85,2.48-1.42,5.3-2.13,8.46-2.13s5.92.71,8.4,2.13c2.48,1.42,4.41,3.37,5.79,5.85,1.38,2.48,2.07,5.24,2.07,8.28s-.69,5.85-2.07,8.31c-1.38,2.46-3.31,4.4-5.79,5.82-2.48,1.42-5.28,2.13-8.4,2.13s-5.98-.71-8.46-2.13ZM306.07,35.58c1.28-.72,2.3-1.76,3.06-3.12.76-1.36,1.14-2.96,1.14-4.8s-.38-3.38-1.14-4.74c-.76-1.36-1.78-2.4-3.06-3.12-1.28-.72-2.68-1.08-4.2-1.08s-2.92.36-4.2,1.08c-1.28.72-2.31,1.76-3.09,3.12-.78,1.36-1.17,2.94-1.17,4.74s.39,3.39,1.17,4.77c.78,1.38,1.81,2.43,3.09,3.15,1.28.72,2.68,1.08,4.2,1.08s2.92-.36,4.2-1.08Z"/>
</svg>